<?xml version="1.0" standalone="no"?><!DOCTYPE svg PUBLIC "-//W3C//DTD SVG 1.1//EN" "http://www.w3.org/Graphics/SVG/1.1/DTD/svg11.dtd"><svg class="icon" width="200px" height="200.00px" viewBox="0 0 1024 1024" version="1.1" xmlns="http://www.w3.org/2000/svg"><path fill="#ffffff" d="M242.797303 257.180384l717.108424 0 0 57.268308-717.108424 0 0-57.268308ZM327.222111 689.656189 177.649538 158.0302 232.782206 142.511761 382.341476 674.16538ZM290.909068 438.167434l636.926244 0 0 57.267285-636.926244 0 0-57.267285ZM327.557756 632.899534l545.278941 0 0 57.267285-545.278941 0 0-57.267285ZM64.093249 142.618185l168.380942 0 0 57.268308-168.380942 0 0-57.268308ZM410.036235 824.220954m-57.267285 0a55.963 55.963 0 1 0 114.53457 0 55.963 55.963 0 1 0-114.53457 0ZM758.287801 824.220954m-57.267285 0a55.963 55.963 0 1 0 114.53457 0 55.963 55.963 0 1 0-114.53457 0Z" /></svg>